<?xml version="1.0" encoding="utf-8"?>
<svg id="master-artboard" viewBox="0 0 1364.18994140625 104.98786926269531" version="1.1" xmlns="http://www.w3.org/2000/svg" x="0px" y="0px" enable-background="new 0 0 1400 980" width="1364.18994140625px" height="104.98786926269531px"><rect id="ee-background" x="0" y="0" width="1364.18994140625" height="104.98786926269531" style="fill: white; fill-opacity: 0; pointer-events: none;"/>









<g transform="matrix(1, 0, 0, 1, -14.012697179673978, -143.2403869743691)"><g transform="matrix(1, 0, 0, 1, 0, 2.842170943040401e-14)">
	<path fill-rule="evenodd" clip-rule="evenodd" fill="#5B5B5F" d="M273.8,200.6c2.2-8.3,6-15.6,12.4-19.6c3.8-2.4,7.8-5.1,12.7-4.9&#10;&#9;&#9;c4.3,0.1,7.2,1.5,8.7,6.3c1.4,4.4,1.7,8.9,1,13.5c-0.2,1.3-0.4,2.9,0,3.9c2.4,5.2-2,9.8-0.7,14.9c-1.8,3.1-4,5.6-7.2,6.4&#10;&#9;&#9;c-1.5,0.4-3,1.1-4.4,2c-3.4,2.1-7.6,3-10.5,1.1c-6.4-4.1-11.7-10.1-11.9-20.1C273.8,202.9,273.6,201.6,273.8,200.6z M294.2,194.3&#10;&#9;&#9;c-2.5,1-4.7,1.6-5.2,4.8c-0.4,2.6,1,4.9,3.5,6.3c2.1,1.2,2.1,1.2,4.9-2.1C296.4,200.4,295.4,197.5,294.2,194.3z"/>
	<path fill-rule="evenodd" clip-rule="evenodd" fill="#5B5B5F" d="M625.5,189.6c2.6-7.9,7.4-13.4,13.7-16.3&#10;&#9;&#9;c4.7-2.2,9.9-0.6,13.1,3.9c2.2,3.1,2.8,8,3.7,12.3c0.4,2.1,0.5,4,2,5.6c2,2,2,4.8,1.9,8.1c-0.2,5.7-3.8,8.5-6.2,12.2&#10;&#9;&#9;c-3.2,5.1-7.5,7.3-12.8,4.5c-1.2-0.6-2.5-1-3.7-1.6c-6.9-3.4-12.3-13.3-12.7-22.4C624.8,193.8,624.8,191.5,625.5,189.6z&#10;&#9;&#9; M645.2,199.6c-0.9-2.3-0.2-5.7-2.9-6.2c-2.9-0.4-2.4,3.3-4.1,5.1c1.5,1.4,2.5,2.4,3.7,3.6C643,201.2,644,200.5,645.2,199.6z"/>
	<path fill-rule="evenodd" clip-rule="evenodd" fill="#5B5B5F" d="M193.3,196.1c1,5.4,3.3,10.9,0.2,16.4c-0.2,0.3-0.1,0.8-0.1,1.2&#10;&#9;&#9;c0.5,1.9,1.1,3.9-0.6,5.4c-1.4,1.2-2.8,2.5-4.3,3.5c-3.6,2.3-7.6,3-11.4,4.3c-5.1,1.6-8.6-0.5-12.3-4.5c-3.4-3.6-5.6-7-4.2-12.6&#10;&#9;&#9;c0.1-0.3,0-0.8,0-1.1c-0.4-9.8,2.4-17.8,9.8-22.4c2.9-1.8,6.4-2.3,9.6-3.4C186.9,183.4,191.8,188.1,193.3,196.1z M175.7,205.4&#10;&#9;&#9;c0.1,1.8,0.2,4.2,2.3,4.4c0.6,0.1,1.8-1.4,1.7-1.8c-0.4-1.8-1.2-3.5-2.3-6.4C176.4,203.7,175.6,204.6,175.7,205.4z"/>
	<path fill-rule="evenodd" clip-rule="evenodd" fill="#5B5B5F" d="M1002.1,216.6c-0.7,1.4-2.6,2.7-3.9,2.9c-6,0.6-12,0.6-16.3-6.1&#10;&#9;&#9;c-0.3-0.4-0.8-0.6-1.2-0.9c-5.6-4-8.7-13.3-7.4-21.1c1.2-7.8,4.8-12.6,10.7-16c4.6-2.7,8.6-1.9,12.2,1.4c2.1,1.9,3.4,5.2,5,7.9&#10;&#9;&#9;c0.6,1.1,1,3,1.7,3.3c4.5,1.6,3.8,6,4.1,9.6C1006.7,204.7,1004.9,210.9,1002.1,216.6z M991.1,197.3c-0.2-0.7-1.2-1.4-1.8-1.4&#10;&#9;&#9;c-0.6,0-1.5,0.7-1.7,1.4c-0.2,0.7-0.1,2.2,0.3,2.6c0.9,0.8,2.2,1.2,3.7,1.9C991.3,199.8,991.4,198.4,991.1,197.3z"/>
	<path fill-rule="evenodd" clip-rule="evenodd" fill="#5B5B5F" d="M1088.7,182.5c3-2.7,3.9-9,9.1-8.1c0.5,0.1,1.3-0.4,1.7-1&#10;&#9;&#9;c2-2.7,4.1-2.4,6.6-0.9c1.4,0.8,3.1,1.1,4.7,1.5c2,0.6,3.4,1.8,4.5,4c1.7,3.4,2.8,6.9,2.9,10.9c0.1,1.8,0.2,3.6,0.8,5.2&#10;&#9;&#9;c1.2,3.9,0.5,7.3-1.1,10.7c-1.2,2.6-2.1,5.4-3.6,7.6c-1.3,1.8-3.2,2.9-5,4.1c-0.8,0.5-2,0.2-2.8,0.7c-3.7,2.5-7.4,0.6-10-1.6&#10;&#9;&#9;c-6.5-5.4-11.2-12.6-10.6-23.2C1086.2,189,1086,185,1088.7,182.5z M1102.7,198.9c1.5-0.8,2.8-2.3,3.8-3.9c0.4-0.7,0-2.7-0.5-3.6&#10;&#9;&#9;c-0.4-0.6-2-0.8-2.6-0.3c-1.7,1.3-3.2,3-4.6,4.4C1099.8,198,1100.8,200,1102.7,198.9z"/>
	<path fill-rule="evenodd" clip-rule="evenodd" fill="#5B5B5F" d="M137.4,189.9c3.8,4.4,4.2,10.5,5.6,16.2c0.3,1.5-0.2,3.6-0.9,5.1&#10;&#9;&#9;c-1.2,2.3-2.8,4.3-4.2,6.5c-0.8,1.3-1.2,3.4-2.3,4c-4.1,2.4-8.2,4.6-12.5,6.2c-2,0.7-5,0.7-6.4-0.6c-2.7-2.6-6.5-4.2-7.5-8.9&#10;&#9;&#9;c-0.8-4.1-3.7-8.3-0.1-12.5c0.1-0.2,0.1-0.8,0-1.1c-1.7-4.8,1.1-8.2,3-11.5c3.9-6.8,10.1-7.8,16.3-8.2&#10;&#9;&#9;C132.1,184.7,134.8,187,137.4,189.9z M122.1,206.2c1.4,2,2.5,3.6,3.9,5.7C126.9,206.4,126.3,205.6,122.1,206.2z"/>
	<path fill-rule="evenodd" clip-rule="evenodd" fill="#5B5B5F" d="M916.8,182c2.5-3.4,5.7-4.9,8.8-5.3c9-1.1,16.1,2.3,17.4,14.7&#10;&#9;&#9;c0.4,4.3,0.8,8.6,0.9,12.9c0.1,3.7-1,6.9-3.1,9.7c-0.8,1.1-1.8,2.1-2.7,3.2c-3.9,4.6-9.7,6.6-13.7,3.7c-6.8-5-12.2-11.5-12.8-21.9&#10;&#9;&#9;C911.4,192.5,913.5,186.6,916.8,182z M929.9,200.9c-0.3-1.3-0.4-3.4-1.1-3.7c-1.1-0.5-2.5,0.2-4.2,0.5&#10;&#9;&#9;C925.7,201.9,927.3,202.3,929.9,200.9z"/>
	<path fill-rule="evenodd" clip-rule="evenodd" fill="#5B5B5F" d="M1338.4,172.5c5.5,4.4,8.3,11.3,9.7,19c0.2,1.1,0.1,2.4-0.1,3.5&#10;&#9;&#9;c-0.5,3.1-1.2,6.1-1.6,9.1c-0.9,6.6-4,10.8-8.9,11.4c-2.6,0.3-5.2,0.1-7.8-0.2c-8-1.1-13.2-8.2-12.9-19.1c0.1-3.4-0.9-6.8,1.3-9.7&#10;&#9;&#9;c-1.4-5.1,1.7-8.2,4-11.2c2.3-3.1,5.4-5.4,9.4-5C1333.8,171,1336.5,171,1338.4,172.5z M1332.3,197.5c0.2-1.9,0.5-3.8,0.8-5.7&#10;&#9;&#9;C1330.4,193.3,1330.4,195.2,1332.3,197.5z"/>
	<path fill-rule="evenodd" clip-rule="evenodd" fill="#5B5B5F" d="M84.1,197c0.7,2.8,1.4,5.7,1.8,8.6c0.5,4.6,0.3,9-3.5,12&#10;&#9;&#9;c-1.7,1.4-2.9,3.6-4.3,5.5c-0.6,0.8-1.1,2.1-1.9,2.5c-3.4,1.8-6.8,3.7-10.3,5c-5,1.9-9.1-0.8-11.2-6.7c-0.4-1.1-0.6-2.3-1-3.3&#10;&#9;&#9;c-3.7-8.1-1-15.8,1.4-23.2c0.8-2.4,3.2-4.5,5.2-5.9c3.8-2.7,7.9-4.7,11.7-4C77.1,187,82.7,191.6,84.1,197z M68.1,206.9&#10;&#9;&#9;c-1.7,2.3-0.7,4.1,0.9,6.7C68.9,210.9,70.9,208.8,68.1,206.9z"/>
	<path fill-rule="evenodd" clip-rule="evenodd" fill="#5B5B5F" d="M578.1,182.3c5-5.3,9.8-5.9,15.6-2.2c4.7,2.9,6.3,8.2,7.3,13.8&#10;&#9;&#9;c0.4,2.3,0.6,4.5,2.3,6.1c2.5,2.5,2.3,6.1,1.7,9.3c-1.6,9.2-10.9,15.5-18.3,12.5c-0.9-0.4-1.8-0.9-2.7-1.2&#10;&#9;&#9;c-8-2.9-12.6-10.5-12.6-20.8C571.5,192.1,573.3,187.4,578.1,182.3z M587.8,205.1c0.3-0.1,0.5-0.2,0.8-0.3c-0.2-1.7-0.4-3.4-0.7-5.1&#10;&#9;&#9;c-1,0.2-2.1,0.5-4,0.9C586,202.9,586.9,204,587.8,205.1z"/>
	<path fill-rule="evenodd" clip-rule="evenodd" fill="#5B5B5F" d="M752.6,178.2c-1.3,0.6-1.4,3.9-3.6,2.4&#10;&#9;&#9;c-4.7,2.6-8.7,6.2-10.2,12.5c-1.7,7.1-1.4,10,1.6,16c1.1,2.1,2.9,3.7,4.4,5.5c4.7,5.8,10.4,7.8,17,6.8c1.1-0.2,2.4-0.7,3-1.6&#10;&#9;&#9;c3.9-5.8,6.9-12.2,7.4-20c0.2-2.8-0.7-4.7-2.5-6.5c-1.7-1.8-3.1-4-4.2-6.3c-1.8-3.7-3.6-6.9-7.7-6.9&#10;&#9;&#9;C756.1,179.9,754.4,178.8,752.6,178.2z"/>
	<path fill-rule="evenodd" clip-rule="evenodd" fill="#5B5B5F" d="M1062.5,184.8c2.7,5.4,2.4,11.7,1.7,17.6&#10;&#9;&#9;c-0.5,3.9-2.6,7.5-4.2,11.1c-1.2,2.8-3.4,3.8-5.8,4.7c-3.6,1.5-6.5,1-10-0.6c-3.2-1.5-4.7-4.5-7.1-6.7c-4.4-4-4.9-10.2-4.5-15.4&#10;&#9;&#9;c0.9-11,7.4-18.3,17.6-19.1C1054.5,177.3,1059.6,178.8,1062.5,184.8z M1051.6,198.9c-2.8-2.3-2.8-2.3-5.6,1.9&#10;&#9;&#9;C1048.7,202.5,1050.2,201,1051.6,198.9z"/>
	<path fill-rule="evenodd" clip-rule="evenodd" fill="#5B5B5F" d="M391.9,197.5c0-0.8-0.2-1.6-0.1-2.3c1.4-9,6.1-15.9,14.6-15.7&#10;&#9;&#9;c6.5,0.2,10.6,5,14.4,10.4c0.4,0.5,0.8,1.7,0.6,2.1c-1.5,3,0.6,5.2,1,7.8c0.4,2.3,1.1,4.9,0.6,6.8c-2.1,7-5.9,12.7-11,16.8&#10;&#9;&#9;c-2.7,2.2-6.1,3.1-9.2,0.7c-5.9-4.4-8.4-11.6-10.4-19.1c-0.6-2.4-0.7-4.9-1-7.4C391.5,197.6,391.7,197.6,391.9,197.5z M405.9,207.1&#10;&#9;&#9;c2.1-2.9,3.5-4.9,4.9-6.9c-1.5-3.3-3.4-1-5.9-1.8C405.3,201.6,405.6,203.7,405.9,207.1z"/>
	<path fill-rule="evenodd" clip-rule="evenodd" fill="#5B5B5F" d="M508.1,189.2c1.8-6.6,10.5-12.4,14.6-12.8c0.5,0,1-0.1,1.4,0.1&#10;&#9;&#9;c5.7,1.4,10.9,8.1,11.8,15.3c0.3,2.3,0.5,4.7,1.3,6.7c2,5.4,1,10.2-1.1,15c-1.6,3.6-4.5,5-7.1,6.9c-2.5,1.8-5.1,2.1-7.8,0.1&#10;&#9;&#9;c-2.8-2-5.8-3.5-8.2-6c-2.3-2.4-4.9-5.5-5.4-8.7c-0.3-2.7-1-5.9-1-9C507.1,194.2,507.4,191.7,508.1,189.2z M524.7,200.1&#10;&#9;&#9;c-0.7-1-1.3-1.9-2-3c-0.9,0.9-1.8,1.4-2.2,2.3c-0.7,1.4-0.6,1.5,1.6,4.8C523.1,202.6,523.8,201.4,524.7,200.1z"/>
	<path fill-rule="evenodd" clip-rule="evenodd" fill="#5B5B5F" d="M855.8,187.1c2.5-6.7,7.7-9.5,13-10.1c3.6-0.5,7.3,1.9,10.1,5.9&#10;&#9;&#9;c3.5,5.2,3.7,12.2,6.5,17.6c0.2,0.3,0.1,0.8,0.1,1.2c-0.3,9.5-8,19.5-16,20.1c-1.9,0.1-4.1-1.1-5.7-2.5c-1.8-1.5-3.2-3.8-4.7-5.8&#10;&#9;&#9;c-3.3-4-6-8.4-5.2-14.2C853,194.7,854.4,190.8,855.8,187.1z M871.7,201.9c-0.1-2.7-1-4.7-3.2-3.9c-2.5,0.9-1.5,3.1-0.4,5.7&#10;&#9;&#9;C869.5,203,870.6,202.4,871.7,201.9z"/>
	<path fill-rule="evenodd" clip-rule="evenodd" fill="#5B5B5F" d="M713.9,192.4c0.4,3,1.5,5.9,2.2,8.8c1.1,4.1,1.5,8.6-1,11.9&#10;&#9;&#9;c-3,3.8-5.4,8.3-11,8.3c-3.5,0-6.4-0.3-9.2-2.7c-2.9-2.5-6.3-4.3-7.8-8.6c-0.3-0.9-0.6-1.8-0.8-2.8c-0.5-2.7-1-5.4-1.3-8.1&#10;&#9;&#9;c-0.2-1.3-0.3-2.8,0.1-4.1c2.7-9.9,9.1-14.5,17.1-15.2C709.1,179.9,712.7,183.9,713.9,192.4z M701,205.3c0.6-3.6,0.6-3.6-3.2-3.3&#10;&#9;&#9;C699.2,203.5,700,204.3,701,205.3z"/>
	<path fill-rule="evenodd" clip-rule="evenodd" fill="#5B5B5F" d="M811.8,210.8c-4.8-4.3-8-10.1-6.9-18.2c0.7-5.3,2.6-9.5,5.6-13.7&#10;&#9;&#9;c3.7-5.2,7.8-6.5,12.7-5.5c6.4,1.3,9,7.9,11.9,13.9c1.8,3.8,1.1,8,0.7,12c-1.4,12.2-8.9,16.4-15.8,16.5&#10;&#9;&#9;C816.6,217.1,814.3,213.1,811.8,210.8z M823.1,194.9c-3.2-3.3-4.1-2.9-5.4,2.5C820.2,198.6,822,197.9,823.1,194.9z"/>
	<path fill-rule="evenodd" clip-rule="evenodd" fill="#5B5B5F" d="M453.3,189.5c1.7-4.1,5.5-5.6,8.5-6.2c3.4-0.6,7.4,0.6,10.5,2.7&#10;&#9;&#9;c5.3,3.6,7.3,11,11,16.5c0.1,0.1-0.1,0.4,0,0.6c1.3,3.3,0.6,6.9-0.5,9.6c-1.5,3.7-4.1,6.7-6.2,10c-0.1,0.1-0.3,0.2-0.4,0.2&#10;&#9;&#9;c-5.2,1.9-10.4,3.1-15.1-1.7c-0.9-0.9-1.9-1.5-2.8-2.4c-4.6-4.7-7.7-10.4-8.5-19C450.8,197,451.9,193.1,453.3,189.5z M465.2,209.1&#10;&#9;&#9;c1.2,2,2.7,2.2,4.1,0.5c1.2-1.5,0.4-2.8-0.7-4c-1.2-1.3-2.2-3-3.6-3.9c-0.9-0.6-2.2-0.1-4.4-0.1&#10;&#9;&#9;C462.6,204.8,463.9,206.9,465.2,209.1z"/>
	<path fill-rule="evenodd" clip-rule="evenodd" fill="#5B5B5F" d="M1271.5,214c9.5-0.6,14.2-4.7,16.7-12.9&#10;&#9;&#9;c1.4-4.7-0.3-12.4-3.4-15.6c-1.6-1.7-3-3.5-4.4-5.4c-2.4-3.3-5.5-6.4-8.9-6.1c-3.1,0.3-6.4,2.6-8.8,5.1c-2.5,2.6-4.7,6.2-6,9.9&#10;&#9;&#9;c-1.6,4.4-1.7,9.7,0.5,13.8C1261.1,209.7,1266.9,213.1,1271.5,214z"/>
	<path fill-rule="evenodd" clip-rule="evenodd" fill="#5B5B5F" d="M232.9,224.6c1.2-0.3,2.6-0.3,3.7-0.8c3.3-1.7,6.3-4,9.7-5.3&#10;&#9;&#9;c2.6-1,3.6-2.8,4.2-5.6c0.2-0.8,0.3-1.6,0.6-2.2c3-5,1.2-10.2,0.1-15.1c-0.5-2-1.9-4.1-3.4-5.4c-2.3-2.1-4.8-4.4-7.5-5.1&#10;&#9;&#9;c-6.2-1.6-13.9,0.8-17,9.2c-2.6,7-3.2,13.9,0.2,20.7c1.1,2.2,2.1,4.4,3.2,6.6C228.2,224.3,230.6,224.2,232.9,224.6z"/>
	<path fill-rule="evenodd" clip-rule="evenodd" fill="#5B5B5F" d="M1202.1,184.8c1.3-2.6,3.3-4.6,5-7c2.9-4.1,6.6-5.4,10.9-4.6&#10;&#9;&#9;c3.8,0.7,6.5,3.4,7.4,7.7c0.9,4.5,2.3,8.5,4.1,12.5c2,4.5,1.8,9-0.5,13.4c-3.5,6.8-9.4,9.5-16,7.2c-2.8-0.9-5.4-1.9-7.7-4.4&#10;&#9;&#9;c-4-4.5-5.2-10.1-5.7-16.6C1200.4,190.2,1200.9,187.2,1202.1,184.8z M1216.3,194.6c0-0.1-0.7-0.4-0.8-0.3c-0.4,1-0.7,2-1,2.9&#10;&#9;&#9;c0.4,0.1,0.8,0.3,1.2,0.4C1216,196.6,1216.2,195.6,1216.3,194.6z"/>
	<path fill-rule="evenodd" clip-rule="evenodd" fill="#5B5B5F" d="M352.4,183.6c0.9-0.1,1.9,0.9,2.8,1.5c4.4,2.8,5.7,10.2,11.2,11.3&#10;&#9;&#9;c0.3,0.1,0.5,0.9,0.8,1.4c2.5,4,2.6,10.4,0,15.1c-2.1,3.8-4.5,7.4-6.6,11.1c-1.5,2.6-3.4,3.1-5.9,2.8c-5.2-0.7-8-5.5-11.5-9&#10;&#9;&#9;c-4.1-4-5.6-9.4-5.4-15.7C336.5,191.7,344.5,184.3,352.4,183.6z M355.5,210c0.3-3.9-1.6-3.7-2.5-4.7c-0.2,0.3-0.5,0.6-0.7,0.8&#10;&#9;&#9;C353.2,207.2,354,208.2,355.5,210z"/>
	<path fill-rule="evenodd" clip-rule="evenodd" fill="#5B5B5F" d="M1149.2,184.7c-0.2,4.3-0.4,8.4-0.5,12.4c-0.1,3.3,0.9,6,3.3,8&#10;&#9;&#9;c1.6,1.3,3.2,2.9,4.2,4.8c4.5,8.3,16.5,7,20.2-2.5c1.3-3.5,1.5-7.9,1.4-11.9c-0.1-6-2.1-11.4-4.8-16.3c-2.5-4.5-9.6-6.1-13.4-3.2&#10;&#9;&#9;c-1.7,1.3-3.3,2.7-4.9,4C1153,181.5,1151.3,183,1149.2,184.7z"/>
</g></g></svg>